# xmcd CD database file
#
# Track frame offsets:
#	150
#	13342
#	34056
#	53550
#	67517
#	85931
#	99488
#	113298
#	131957
#	147749
#	160919
#	169423
#	186577
#
# Disc length: 2745 seconds
#
# Revision: 0
# Processed by: cddbd v1.5.2PL0 Copyright (c) Steve Scherf et al.
# Submitted via: CDex 1.90
#
DISCID=b20ab70d
DTITLE=The Delta Saints - Death Letter Jubilee
DYEAR=2013
DGENRE=Blues
TTITLE0=Liar
TTITLE1=Chicago
TTITLE2=Death Letter Jubilee
TTITLE3=Jezebel
TTITLE4=Boogie
TTITLE5=Out to Sea
TTITLE6=Sing to Me
TTITLE7=Drink it Slow
TTITLE8=From the Dirt
TTITLE9=The Devils Creek
TTITLE10=River
TTITLE11=Old Man
TTITLE12=Jericho
EXTD=YEAR: 2013
EXTT0=
EXTT1=
EXTT2=
EXTT3=
EXTT4=
EXTT5=
EXTT6=
EXTT7=
EXTT8=
EXTT9=
EXTT10=
EXTT11=
EXTT12=
PLAYORDER=
